<svg xmlns="http://www.w3.org/2000/svg" width="65" height="65" fill="none"><rect width="64.646" height="64.646" x=".177" y=".177" fill="#fff" stroke="#F2F4F8" stroke-width=".354" rx="4.498"/><g opacity=".7"><path fill="#0081FB" d="M11.84 38.105c0 1.961.439 3.468 1.013 4.379.754 1.193 1.877 1.699 3.023 1.699 1.477 0 2.829-.36 5.434-3.888 2.086-2.828 4.545-6.798 6.2-9.287l2.801-4.216c1.946-2.929 4.199-6.184 6.782-8.39C39.2 16.6 41.476 15.6 43.765 15.6c3.843 0 7.504 2.182 10.306 6.273 3.066 4.48 4.554 10.125 4.554 15.95 0 3.462-.697 6.006-1.882 8.016-1.146 1.944-3.378 3.886-7.134 3.886v-5.542c3.216 0 4.018-2.895 4.018-6.207 0-4.72-1.123-9.959-3.598-13.702-1.757-2.655-4.033-4.277-6.538-4.277-2.708 0-4.888 2.001-7.338 5.569-1.302 1.896-2.639 4.206-4.14 6.812l-1.653 2.868c-3.32 5.765-4.16 7.079-5.82 9.246-2.91 3.795-5.394 5.233-8.664 5.233-3.88 0-6.333-1.645-7.853-4.125-1.24-2.021-1.85-4.672-1.85-7.694l5.666.199Z"/><path fill="url(#a)" d="M10.598 22.264c2.6-3.921 6.351-6.664 10.654-6.664 2.492 0 4.97.722 7.557 2.789 2.83 2.26 5.845 5.982 9.608 12.115l1.35 2.201c3.256 5.31 5.11 8.042 6.194 9.33 1.395 1.655 2.371 2.148 3.64 2.148 3.219 0 4.022-2.895 4.022-6.207l5.002-.154c0 3.463-.697 6.007-1.884 8.017-1.146 1.944-3.38 3.886-7.14 3.886-2.337 0-4.407-.497-6.696-2.61-1.76-1.623-3.818-4.505-5.4-7.095l-4.71-7.697c-2.362-3.863-4.529-6.743-5.783-8.047-1.349-1.403-3.083-3.096-5.851-3.096-2.24 0-4.143 1.538-5.735 3.891l-4.828-2.807Z"/><path fill="url(#b)" d="M21.249 21.242c-2.246 0-4.154 1.555-5.75 3.934-2.257 3.362-3.64 8.37-3.64 13.179 0 1.984.442 3.506 1.019 4.428l-4.848 3.15c-1.245-2.043-1.856-4.724-1.856-7.779 0-5.555 1.545-11.345 4.483-15.816 2.607-3.965 6.369-6.738 10.683-6.738l-.091 5.642Z"/></g><defs><linearGradient id="a" x1="17.263" x2="53.407" y1="36.504" y2="38.369" gradientUnits="userSpaceOnUse"><stop stop-color="#0064E1"/><stop offset=".4" stop-color="#0064E1"/><stop offset=".83" stop-color="#0073EE"/><stop offset="1" stop-color="#0082FB"/></linearGradient><linearGradient id="b" x1="14.412" x2="14.412" y1="40.711" y2="27.523" gradientUnits="userSpaceOnUse"><stop stop-color="#0082FB"/><stop offset="1" stop-color="#0064E0"/></linearGradient></defs></svg>