<svg width="235" height="20" viewBox="0 0 235 20" fill="none" xmlns="http://www.w3.org/2000/svg">
<rect x="0.5" width="30" height="20" rx="4" fill="#F1F4F9"/>
<path d="M15.3832 6.14131L13.7798 13.8785H11.8404L13.444 6.14131H15.3832ZM23.5422 11.1373L24.563 8.23184L25.1504 11.1373H23.5422ZM25.7067 13.8785H27.5L25.9334 6.14131H24.2792C23.9064 6.14131 23.5921 6.3644 23.453 6.70845L20.5431 13.8785H22.5799L22.9842 12.723H25.4719L25.7067 13.8785ZM20.6441 11.3526C20.6526 9.31061 17.9092 9.19749 17.9276 8.28509C17.9335 8.00787 18.1898 7.71256 18.7499 7.63703C19.0276 7.60014 19.7939 7.57021 20.6625 7.98334L21.0022 6.34195C20.5357 6.16776 19.9353 6 19.1883 6C17.2711 6 15.9224 7.0511 15.9116 8.55744C15.8993 9.67136 16.875 10.2924 17.6086 10.6635C18.365 11.0427 18.6184 11.2858 18.6147 11.6246C18.6094 12.1437 18.0116 12.3736 17.4549 12.3823C16.4793 12.3979 15.9138 12.1101 15.4632 11.8933L15.1111 13.5895C15.565 13.8039 16.4013 13.9904 17.2672 14C19.3054 14 20.6381 12.9613 20.6441 11.3526ZM12.6121 6.14131L9.46986 13.8785H7.42017L5.87375 7.70368C5.78001 7.32397 5.69823 7.1844 5.41313 7.02395C4.94678 6.76257 4.17694 6.51807 3.5 6.36597L3.54586 6.14131H6.84574C7.26606 6.14131 7.64424 6.43001 7.74051 6.9298L8.55739 11.4074L10.5747 6.14131H12.6121Z" fill="#1434CB"/>
<rect x="34.5" width="30" height="20" rx="4" fill="#F1F4F9"/>
<path d="M52.2049 5.14062H46.7969V14.8591H52.2049V5.14062Z" fill="#FF5F00"/>
<path d="M47.1395 10.0009C47.1386 9.06499 47.3507 8.14112 47.7597 7.29925C48.1687 6.45738 48.7638 5.71959 49.5001 5.14173C48.5883 4.42506 47.4933 3.97937 46.3402 3.85561C45.1871 3.73185 44.0225 3.93501 42.9794 4.44186C41.9363 4.94872 41.0568 5.73882 40.4416 6.72187C39.8263 7.70491 39.5 8.84123 39.5 10.0009C39.5 11.1607 39.8263 12.297 40.4416 13.28C41.0568 14.2631 41.9363 15.0532 42.9794 15.56C44.0225 16.0669 45.1871 16.2701 46.3402 16.1463C47.4933 16.0225 48.5883 15.5768 49.5001 14.8602C48.7638 14.2823 48.1687 13.5445 47.7597 12.7027C47.3507 11.8608 47.1386 10.9369 47.1395 10.0009Z" fill="#EB001B"/>
<path d="M59.4998 10.0009C59.4998 11.1606 59.1736 12.297 58.5583 13.28C57.9431 14.2631 57.0637 15.0532 56.0206 15.56C54.9775 16.0669 53.8129 16.2701 52.6598 16.1463C51.5067 16.0225 50.4117 15.5768 49.5 14.8602C50.2356 14.2817 50.8303 13.5438 51.2392 12.7021C51.6482 11.8603 51.8606 10.9368 51.8606 10.0009C51.8606 9.06514 51.6482 8.14155 51.2392 7.29982C50.8303 6.45808 50.2356 5.72017 49.5 5.14173C50.4117 4.42506 51.5067 3.97937 52.6598 3.85561C53.8129 3.73185 54.9775 3.93501 56.0206 4.44187C57.0637 4.94873 57.9431 5.73884 58.5583 6.72189C59.1736 7.70493 59.4998 8.84125 59.4998 10.0009Z" fill="#F79E1B"/>
<path d="M57.029 13.0669V12.9077H57.0931V12.8753H56.9297V12.9077H56.9939V13.0669H57.029ZM57.3463 13.0669V12.875H57.2962L57.2386 13.007L57.1809 12.875H57.1308V13.0669H57.1662V12.9222L57.2202 13.047H57.2569L57.311 12.9218V13.0669H57.3463Z" fill="#F79E1B"/>
<rect x="68.5" width="30" height="20" rx="4" fill="#F1F4F9"/>
<path fill-rule="evenodd" clip-rule="evenodd" d="M73.0512 10.9525C72.8038 11.1641 72.4889 11.2565 71.9853 11.2565H71.7764V8.73249H71.9853C72.4889 8.73249 72.7917 8.81875 73.0512 9.04079C73.319 9.27023 73.4799 9.62419 73.4799 9.99029C73.4799 10.3582 73.319 10.7247 73.0512 10.9525ZM72.1413 8.08594H70.998V11.9034H72.1344C72.7391 11.9034 73.1756 11.7657 73.5582 11.4618C74.0126 11.1019 74.2823 10.5586 74.2823 9.99562C74.2823 8.86869 73.4025 8.08594 72.1413 8.08594Z" fill="#201D1C"/>
<path fill-rule="evenodd" clip-rule="evenodd" d="M74.6406 8.08594H75.4159V11.9034H74.6406V8.08594Z" fill="#201D1C"/>
<path fill-rule="evenodd" clip-rule="evenodd" d="M77.3212 9.55011C76.8532 9.38588 76.7165 9.2765 76.7165 9.07017C76.7165 8.83035 76.9609 8.64848 77.297 8.64848C77.53 8.64848 77.7219 8.73771 77.9263 8.95575L78.3311 8.44765C77.9967 8.16603 77.5964 8.02344 77.1601 8.02344C76.4541 8.02344 75.916 8.49345 75.916 9.11494C75.916 9.6426 76.1661 9.91029 76.8961 10.1645C77.2013 10.266 77.3563 10.3354 77.4349 10.3824C77.5904 10.4786 77.6678 10.6164 77.6678 10.7758C77.6678 11.0863 77.4107 11.3145 77.0631 11.3145C76.6931 11.3145 76.3937 11.1373 76.2144 10.8044L75.7129 11.2692C76.0715 11.7719 76.5013 11.9966 77.0935 11.9966C77.9011 11.9966 78.4702 11.4792 78.4702 10.7423C78.4702 10.135 78.2062 9.85975 77.3212 9.55011Z" fill="#201D1C"/>
<path fill-rule="evenodd" clip-rule="evenodd" d="M78.7148 9.99594C78.7148 11.1186 79.6357 11.9885 80.8211 11.9885C81.1554 11.9885 81.4419 11.9253 81.7948 11.766V10.8887C81.483 11.1885 81.2093 11.3068 80.8552 11.3068C80.0719 11.3068 79.517 10.7645 79.517 9.99061C79.517 9.25943 80.0899 8.68019 80.8211 8.68019C81.1901 8.68019 81.472 8.80528 81.7948 9.10958V8.2333C81.4539 8.06833 81.1741 8 80.8371 8C79.6585 8 78.7148 8.88695 78.7148 9.99594Z" fill="#201D1C"/>
<path fill-rule="evenodd" clip-rule="evenodd" d="M88.0976 10.6488L87.0338 8.08594H86.1855L87.8767 11.9997H88.2938L90.0178 8.08594H89.1763L88.0976 10.6488Z" fill="#201D1C"/>
<path fill-rule="evenodd" clip-rule="evenodd" d="M90.3691 11.9034H92.5753V11.2565H91.1475V10.2261H92.5211V9.57941H91.1475V8.73248H92.5753V8.08594H90.3691V11.9034Z" fill="#201D1C"/>
<path fill-rule="evenodd" clip-rule="evenodd" d="M94.0957 9.84135H93.8699V8.68671H94.1084C94.5945 8.68671 94.8549 8.88192 94.8549 9.25381C94.8549 9.63592 94.5945 9.84135 94.0957 9.84135ZM95.656 9.21227C95.656 8.4974 95.1436 8.08594 94.2454 8.08594H93.0898V11.9034H93.8699V10.3685H93.971L95.0459 11.9034H96.003L94.7478 10.2944C95.3344 10.1797 95.656 9.79641 95.656 9.21227Z" fill="#201D1C"/>
<path fill-rule="evenodd" clip-rule="evenodd" d="M86.2939 10.0058C86.2939 11.1048 85.3633 11.9957 84.2142 11.9957C83.0655 11.9957 82.1348 11.1048 82.1348 10.0058C82.1348 8.90658 83.0655 8.01562 84.2142 8.01562C85.3633 8.01562 86.2939 8.90658 86.2939 10.0058Z" fill="url(#paint0_linear_20382_23838)"/>
<path fill-rule="evenodd" clip-rule="evenodd" d="M86.2939 10.0058C86.2939 11.1048 85.3633 11.9957 84.2142 11.9957C83.0655 11.9957 82.1348 11.1048 82.1348 10.0058C82.1348 8.90658 83.0655 8.01562 84.2142 8.01562C85.3633 8.01562 86.2939 8.90658 86.2939 10.0058Z" fill="url(#paint1_radial_20382_23838)"/>
<rect x="102.5" width="30" height="20" rx="4" fill="#F1F4F9"/>
<path fill-rule="evenodd" clip-rule="evenodd" d="M131.183 10.517H129.759C129.33 10.517 129.017 10.6195 128.797 10.779V10.517H126.691C126.354 10.517 125.959 10.6002 125.772 10.779V10.517H122.012V10.779C121.713 10.5638 121.208 10.517 120.975 10.517H118.495V10.779C118.259 10.5504 117.732 10.517 117.411 10.517H114.636L114.001 11.2022L113.406 10.517H109.26V14.9944H113.328L113.982 14.2983L114.599 14.9944L117.106 14.9967V13.9434H117.353C117.686 13.9485 118.078 13.9352 118.424 13.7859V14.9943H120.492V13.8274H120.592C120.719 13.8274 120.732 13.8326 120.732 13.9594V14.9942H127.015C127.414 14.9942 127.831 14.8924 128.062 14.7077V14.9942H130.055C130.469 14.9942 130.874 14.9363 131.183 14.7878C131.183 -9.70982 131.183 20.774 131.183 10.517Z" fill="#006FCF"/>
<path fill-rule="evenodd" clip-rule="evenodd" d="M105.133 9.47438L105.429 8.76181H106.092L106.388 9.47438H108.973V8.9296L109.204 9.4767H110.547L110.777 8.92147V9.47438H117.203L117.2 8.30469H117.325C117.412 8.30769 117.437 8.31573 117.437 8.45903V9.47438H120.761V9.20209C121.029 9.3453 121.446 9.47438 121.994 9.47438H123.392L123.692 8.76181H124.355L124.648 9.47438H127.342V8.79751L127.75 9.47438H129.909V5H127.772V5.52843L127.473 5H125.281V5.52843L125.006 5H122.044C121.548 5 121.113 5.06899 120.761 5.26126V5H118.717V5.26126C118.493 5.06309 118.188 5 117.848 5H110.381L109.88 6.15566L109.366 5H107.014V5.52843L106.756 5H104.75L103.818 7.12736V9.47438H105.133Z" fill="#006FCF"/>
<path fill-rule="evenodd" clip-rule="evenodd" d="M117.388 13.2888C118.06 13.2888 118.727 13.1048 118.727 12.2134C118.727 11.3247 118.041 11.1562 117.431 11.1562H114.973L113.995 12.2081L113.049 11.1562H109.955V14.3651H113.002L113.986 13.3029L114.933 14.3651H116.428V13.2888H117.388ZM116.428 12.6372H117.422C117.717 12.6372 117.901 12.4909 117.901 12.2134C117.901 11.9328 117.709 11.82 117.431 11.82H116.428V12.6372ZM112.612 13.6964H110.721V13.058H112.41V12.4033H110.721V11.8199H112.65L113.491 12.755L112.612 13.6964ZM115.662 14.0733L114.481 12.7662L115.662 11.5007V14.0733Z" fill="#F1F4F9"/>
<path fill-rule="evenodd" clip-rule="evenodd" d="M122.016 13.1433C121.951 13.0498 121.811 12.9369 121.64 12.8739C121.842 12.7938 122.185 12.5324 122.185 12.0203C122.185 11.6542 122.032 11.4539 121.789 11.3077C121.537 11.1734 121.253 11.1562 120.864 11.1562H119.088V14.3651H119.861V13.1931H120.683C120.964 13.1931 121.135 13.2206 121.247 13.3356C121.376 13.4699 121.374 13.7149 121.372 13.9033C121.372 13.9242 121.372 13.9444 121.372 13.9637V14.3651H122.144V13.729C122.141 13.4462 122.125 13.3 122.016 13.1433ZM121.175 12.4746C121.072 12.5355 120.945 12.5407 120.795 12.5407H119.861V11.82H120.808C120.945 11.82 121.082 11.8229 121.175 11.8779C121.275 11.9299 121.334 12.0293 121.334 12.1666C121.334 12.3039 121.275 12.4145 121.175 12.4746Z" fill="#F1F4F9"/>
<path d="M128.115 12.6727C128.265 12.8273 128.345 13.0223 128.345 13.3526C128.345 14.0429 127.913 14.3651 127.137 14.3651H125.639V13.6771H127.131C127.277 13.6771 127.38 13.6578 127.445 13.5976C127.498 13.548 127.536 13.4759 127.536 13.3883C127.536 13.2948 127.495 13.2206 127.442 13.1761C127.383 13.1271 127.302 13.1049 127.168 13.1049C127.121 13.1033 127.073 13.102 127.025 13.1007C126.335 13.082 125.548 13.0607 125.548 12.1117C125.548 11.6463 125.842 11.1563 126.648 11.1563H128.19V11.8393H126.779C126.639 11.8393 126.548 11.8445 126.471 11.8973C126.387 11.9492 126.355 12.0264 126.355 12.1282C126.355 12.2492 126.427 12.3315 126.524 12.3672C126.605 12.3953 126.692 12.4035 126.823 12.4035L127.237 12.4147C127.655 12.4248 127.941 12.4968 128.115 12.6727Z" fill="#F1F4F9"/>
<path d="M131.183 11.8391H129.782C129.642 11.8391 129.549 11.8443 129.47 11.8971C129.389 11.949 129.358 12.0262 129.358 12.1279C129.358 12.249 129.426 12.3313 129.526 12.367C129.607 12.3951 129.694 12.4033 129.823 12.4033L130.239 12.4145C130.66 12.4248 130.941 12.4969 131.112 12.6727C131.138 12.6934 131.156 12.7162 131.174 12.7393L131.178 12.7456L131.181 12.7496L131.183 12.7522V13.9547C130.997 14.2271 130.633 14.3652 130.14 14.3652H128.654V13.6771H130.134C130.28 13.6771 130.383 13.6578 130.445 13.5976C130.498 13.548 130.536 13.4759 130.536 13.3883C130.536 13.2948 130.498 13.2206 130.442 13.1761C130.386 13.1272 130.305 13.1049 130.171 13.1049C130.124 13.1033 130.076 13.102 130.027 13.1007C129.335 13.082 128.548 13.0607 128.548 12.1117C128.548 11.6463 128.844 11.1564 129.651 11.1564H131.183L131.183 11.8391Z" fill="#F1F4F9"/>
<path d="M122.611 11.1562H125.178V11.8199H123.377V12.4033H125.134V13.058H123.377V13.6964L125.178 13.6993V14.3651H122.611V11.1562Z" fill="#F1F4F9"/>
<path fill-rule="evenodd" clip-rule="evenodd" d="M106.284 7.45662L105.757 6.17768L105.234 7.45662H106.284ZM117.881 6.94738C117.775 7.01134 117.65 7.01347 117.501 7.01347H116.566V6.3009H117.513C117.647 6.3009 117.787 6.3069 117.878 6.35876C117.978 6.4055 118.04 6.50497 118.04 6.64238C118.04 6.78259 117.981 6.89542 117.881 6.94738ZM124.547 7.45662L124.014 6.17768L123.485 7.45662H124.547ZM112.122 8.84094H111.333L111.33 6.32835L110.215 8.84094H109.54L108.421 6.32613V8.84094H106.857L106.562 8.12536H104.96L104.662 8.84094H103.826L105.203 5.63281H106.346L107.654 8.67024V5.63281H108.91L109.916 7.80914L110.841 5.63281H112.121V8.84094H112.122ZM115.264 8.84094H112.695V5.63281H115.264V6.30087H113.464V6.87914H115.221V7.53675H113.464V8.17742H115.264V8.84094ZM118.887 6.49682C118.887 7.00832 118.544 7.27258 118.345 7.35193C118.513 7.41579 118.657 7.52862 118.725 7.62209C118.834 7.78166 118.853 7.92419 118.853 8.21071V8.84094H118.077L118.074 8.43636C118.074 8.24332 118.093 7.9657 117.953 7.81136C117.84 7.69854 117.669 7.67406 117.392 7.67406H116.566V8.84094H115.797V5.63281H117.566C117.959 5.63281 118.249 5.64317 118.498 5.78647C118.741 5.92978 118.887 6.13899 118.887 6.49682ZM120.118 8.84094H119.333V5.63281H120.118V8.84094ZM129.222 8.84094H128.132L126.675 6.43305V8.84094H125.108L124.809 8.12536H123.211L122.921 8.84094H122.021C121.647 8.84094 121.174 8.75849 120.905 8.4861C120.635 8.21371 120.495 7.84475 120.495 7.26136C120.495 6.78557 120.579 6.35061 120.909 6.0069C121.158 5.75087 121.547 5.63281 122.077 5.63281H122.822V6.32023H122.093C121.812 6.32023 121.654 6.36183 121.501 6.51027C121.37 6.64535 121.28 6.90072 121.28 7.23697C121.28 7.58068 121.348 7.82849 121.491 7.99038C121.61 8.11733 121.825 8.15584 122.027 8.15584H122.373L123.457 5.63291H124.609L125.912 8.66734V5.63291H127.083L128.435 7.8672V5.63291H129.222V8.84094Z" fill="#F1F4F9"/>
<rect x="136.5" width="30" height="20" rx="4" fill="#F1F4F9"/>
<path d="M149.303 15.5913L149.511 14.2704L149.048 14.2597H146.836L148.373 4.51281C148.378 4.48339 148.394 4.45595 148.416 4.43647C148.439 4.41699 148.468 4.40625 148.498 4.40625H152.228C153.466 4.40625 154.321 4.66391 154.767 5.17247C154.976 5.41104 155.11 5.66035 155.174 5.9347C155.242 6.22258 155.243 6.56652 155.177 6.98601L155.172 7.01663V7.28542L155.381 7.40391C155.557 7.49735 155.697 7.60431 155.805 7.72678C155.984 7.93076 156.099 8.19001 156.148 8.49737C156.199 8.81348 156.182 9.18963 156.099 9.61548C156.004 10.1053 155.85 10.532 155.641 10.8811C155.45 11.2028 155.205 11.4696 154.915 11.6763C154.639 11.8728 154.31 12.0219 153.938 12.1173C153.578 12.2111 153.167 12.2585 152.716 12.2585H152.426C152.219 12.2585 152.017 12.3332 151.859 12.4672C151.7 12.604 151.595 12.7909 151.563 12.9953L151.541 13.1141L151.174 15.4422L151.157 15.5277C151.152 15.5547 151.145 15.5683 151.134 15.5774C151.124 15.5858 151.11 15.5913 151.096 15.5913H149.303Z" fill="#253B80"/>
<path d="M155.579 7.04688C155.568 7.11805 155.555 7.19081 155.541 7.26557C155.049 9.79086 153.366 10.6632 151.217 10.6632H150.123C149.86 10.6632 149.638 10.8541 149.597 11.1133L149.037 14.6665L148.878 15.6737C148.852 15.8438 148.983 15.9973 149.155 15.9973H151.096C151.326 15.9973 151.521 15.8303 151.557 15.6037L151.576 15.5051L151.942 13.1861L151.965 13.0589C152.001 12.8315 152.196 12.6645 152.426 12.6645H152.717C154.597 12.6645 156.069 11.901 156.5 9.69185C156.679 8.76897 156.586 7.99838 156.111 7.45642C155.967 7.293 155.788 7.15741 155.579 7.04688Z" fill="#179BD7"/>
<path d="M155.065 6.84061C154.99 6.81874 154.912 6.79886 154.833 6.78096C154.753 6.76347 154.671 6.74796 154.587 6.73444C154.292 6.68673 153.968 6.66406 153.622 6.66406H150.698C150.626 6.66406 150.558 6.68037 150.497 6.70979C150.362 6.7746 150.262 6.90224 150.237 7.0585L149.616 10.9973L149.598 11.1122C149.639 10.853 149.86 10.6621 150.123 10.6621H151.217C153.367 10.6621 155.05 9.78936 155.541 7.26447C155.556 7.18972 155.568 7.11695 155.58 7.04578C155.455 6.97977 155.32 6.92331 155.175 6.8752C155.139 6.86327 155.102 6.85174 155.065 6.84061Z" fill="#222D65"/>
<path d="M150.237 7.06128C150.261 6.90502 150.362 6.77738 150.496 6.71297C150.558 6.68354 150.626 6.66724 150.698 6.66724H153.622C153.968 6.66724 154.291 6.6899 154.586 6.73762C154.671 6.75114 154.752 6.76665 154.832 6.78414C154.912 6.80203 154.989 6.82191 155.065 6.84378C155.102 6.85492 155.139 6.86645 155.175 6.87798C155.32 6.92609 155.455 6.98295 155.58 7.04856C155.726 6.11534 155.578 5.47994 155.074 4.90459C154.517 4.27118 153.513 4 152.229 4H148.499C148.236 4 148.012 4.19086 147.972 4.4505L146.418 14.2976C146.387 14.4924 146.538 14.6682 146.734 14.6682H149.037L149.615 11.0001L150.237 7.06128Z" fill="#253B80"/>
<rect x="170.5" width="30" height="20" rx="4" fill="#F1F4F9"/>
<path d="M179.318 7.0314C179.09 7.30162 178.724 7.51475 178.359 7.4843C178.313 7.11893 178.492 6.73073 178.701 6.49096C178.93 6.21313 179.329 6.01522 179.653 6C179.691 6.38059 179.542 6.75357 179.318 7.0314ZM179.649 7.55661C179.12 7.52617 178.667 7.85728 178.416 7.85728C178.161 7.85728 177.777 7.57184 177.358 7.57945C176.814 7.58706 176.307 7.89534 176.03 8.3863C175.459 9.36822 175.881 10.8221 176.433 11.6213C176.703 12.0171 177.027 12.451 177.453 12.4358C177.856 12.4206 178.016 12.1732 178.503 12.1732C178.994 12.1732 179.135 12.4358 179.561 12.4282C180.003 12.4206 180.281 12.0324 180.551 11.6365C180.859 11.1874 180.985 10.7498 180.992 10.7269C180.985 10.7193 180.14 10.3958 180.132 9.4215C180.125 8.60704 180.798 8.21884 180.829 8.196C180.448 7.63273 179.855 7.57184 179.649 7.55661ZM182.705 6.4529V12.3863H183.626V10.3578H184.901C186.066 10.3578 186.884 9.55852 186.884 8.40152C186.884 7.24453 186.081 6.4529 184.932 6.4529H182.705ZM183.626 7.22931H184.688C185.487 7.22931 185.944 7.65557 185.944 8.40533C185.944 9.15509 185.487 9.58516 184.684 9.58516H183.626V7.22931ZM188.566 12.432C189.145 12.432 189.681 12.1389 189.925 11.6746H189.944V12.3863H190.796V9.43292C190.796 8.57659 190.111 8.02474 189.057 8.02474C188.079 8.02474 187.356 8.58421 187.329 9.353H188.159C188.228 8.98763 188.566 8.74786 189.031 8.74786C189.594 8.74786 189.91 9.01047 189.91 9.49382V9.82112L188.76 9.88963C187.691 9.95433 187.112 10.392 187.112 11.1532C187.112 11.922 187.71 12.432 188.566 12.432ZM188.814 11.7279C188.323 11.7279 188.011 11.4919 188.011 11.1304C188.011 10.7574 188.311 10.5404 188.886 10.5062L189.91 10.4415V10.7764C189.91 11.3321 189.438 11.7279 188.814 11.7279ZM191.934 14C192.833 14 193.255 13.6575 193.624 12.6185L195.242 8.08183H194.306L193.221 11.5871H193.202L192.117 8.08183H191.154L192.715 12.4015L192.631 12.6641C192.49 13.1094 192.262 13.2807 191.855 13.2807C191.782 13.2807 191.641 13.2731 191.584 13.2655V13.9772C191.638 13.9924 191.866 14 191.934 14Z" fill="black"/>
<rect x="204.5" width="30" height="20" rx="4" fill="#F1F4F9"/>
<path d="M218.816 9.88786V12.2466H218.062V6.42188H220.06C220.567 6.42188 220.998 6.58952 221.352 6.92481C221.713 7.26011 221.893 7.66947 221.893 8.15292C221.893 8.64806 221.713 9.05742 221.352 9.38882C221.002 9.72021 220.571 9.88396 220.06 9.88396H218.816V9.88786ZM218.816 7.13924V9.17049H220.076C220.374 9.17049 220.626 9.06912 220.822 8.87028C221.022 8.67145 221.124 8.42973 221.124 8.15681C221.124 7.8878 221.022 7.64998 220.822 7.45114C220.626 7.24451 220.378 7.14314 220.076 7.14314H218.816V7.13924Z" fill="black"/>
<path d="M223.864 8.13281C224.421 8.13281 224.861 8.28096 225.183 8.57727C225.505 8.87357 225.666 9.27904 225.666 9.79368V12.2499H224.947V11.6963H224.916C224.606 12.1524 224.19 12.3785 223.672 12.3785C223.228 12.3785 222.859 12.2499 222.561 11.9887C222.262 11.7275 222.113 11.4039 222.113 11.014C222.113 10.6007 222.27 10.2732 222.584 10.0315C222.898 9.78588 223.318 9.66502 223.84 9.66502C224.288 9.66502 224.657 9.74689 224.943 9.91064V9.73909C224.943 9.47788 224.841 9.25955 224.633 9.07631C224.425 8.89307 224.182 8.8034 223.903 8.8034C223.483 8.8034 223.15 8.97884 222.906 9.33362L222.243 8.92036C222.608 8.39403 223.15 8.13281 223.864 8.13281ZM222.89 11.0257C222.89 11.2206 222.973 11.3844 223.142 11.513C223.307 11.6417 223.503 11.708 223.727 11.708C224.044 11.708 224.327 11.591 224.574 11.3571C224.822 11.1231 224.947 10.8502 224.947 10.5344C224.712 10.3512 224.386 10.2576 223.966 10.2576C223.66 10.2576 223.405 10.3317 223.201 10.476C222.993 10.628 222.89 10.8112 222.89 11.0257Z" fill="black"/>
<path d="M229.763 8.25781L227.251 13.9968H226.474L227.408 11.9889L225.752 8.25781H226.572L227.766 11.1195H227.781L228.943 8.25781H229.763Z" fill="black"/>
<path d="M215.817 9.4131C215.817 9.16904 215.795 8.9355 215.755 8.71094H212.596V9.99752L214.415 9.99791C214.341 10.426 214.104 10.7909 213.74 11.0342V11.8689H214.823C215.455 11.2876 215.817 10.4283 215.817 9.4131Z" fill="#4285F4"/>
<path d="M213.741 11.0351C213.439 11.237 213.051 11.3552 212.597 11.3552C211.72 11.3552 210.975 10.768 210.709 9.97656H209.592V10.8374C210.145 11.9283 211.283 12.6768 212.597 12.6768C213.505 12.6768 214.268 12.3801 214.824 11.8694L213.741 11.0351Z" fill="#34A853"/>
<path d="M210.604 9.33578C210.604 9.11355 210.641 8.89873 210.709 8.69678V7.83594H209.592C209.363 8.28702 209.234 8.7962 209.234 9.33578C209.234 9.87537 209.364 10.3845 209.592 10.8356L210.709 9.97479C210.641 9.77283 210.604 9.55801 210.604 9.33578Z" fill="#FABB05"/>
<path d="M212.597 7.32167C213.093 7.32167 213.537 7.49127 213.887 7.82266L214.847 6.8702C214.264 6.331 213.504 6 212.597 6C211.283 6 210.145 6.74856 209.592 7.83943L210.709 8.70027C210.975 7.90882 211.72 7.32167 212.597 7.32167Z" fill="#E94235"/>
<defs>
<linearGradient id="paint0_linear_20382_23838" x1="82.9384" y1="8.39168" x2="85.5268" y2="11.5173" gradientUnits="userSpaceOnUse">
<stop stop-color="#E6772F"/>
<stop offset="1" stop-color="#EA9D2C"/>
</linearGradient>
<radialGradient id="paint1_radial_20382_23838" cx="0" cy="0" r="1" gradientUnits="userSpaceOnUse" gradientTransform="translate(84.6721 10.8336) rotate(-128.1) scale(2.73064 2.8535)">
<stop stop-color="#EA9D2C" stop-opacity="0"/>
<stop offset="0.328125" stop-color="#DF7624" stop-opacity="0"/>
<stop offset="0.760188" stop-color="#BF4B23" stop-opacity="0.75"/>
<stop offset="1" stop-color="#7D3017"/>
</radialGradient>
</defs>
</svg>
